<svg width="284" height="47" viewBox="0 0 284 47" fill="none" xmlns="http://www.w3.org/2000/svg">
<path d="M7.16 25.84V46H0.76V1.2H7.16V20.08H28.6V1.2H35V46H28.6V25.84H7.16Z" fill="#F80EFD"/>
<path d="M85.55 46V9.52H85.422L72.238 46H65.838L52.718 9.52H52.59V46H46.51V1.2H55.534L68.974 38.576H69.102L82.606 1.2H91.63V46H85.55Z" fill="#0601FF"/>
<path d="M103.775 46V36.4H113.375V46H103.775ZM103.775 23.6V14H113.375V23.6H103.775ZM264.723 25.84V40.24H283.859V46H258.323V1.2H283.859V6.96H264.723V20.08H280.019V25.84H264.723Z" fill="white"/>
<path d="M150.79 34.8H157.19V42.032L149.766 46.32H132.934L125.51 42.032V5.168L132.934 0.879997H149.766L157.19 5.168V12.4H150.79V6.64H131.91V40.56H150.79V34.8Z" fill="#FAFF01"/>
<path d="M201.673 42.032L194.249 46.32H175.497L168.073 42.032V5.168L175.497 0.879997H194.249L201.673 5.168V42.032ZM174.473 6.64V40.56H195.273V6.64H174.473Z" fill="#2AFF07"/>
<path d="M246.798 41.712L239.374 46H213.198V1.2H239.374L246.798 5.488V41.712ZM219.598 6.96V40.24H240.398V6.96H219.598Z" fill="#FE8DDE"/>
</svg>
